# xmcd CD database file
#
# Track frame offsets:
#	150
#	1093
#	16523
#	30923
#	48408
#	64867
#	85437
#	102925
#	120412
#	136869
#	153326
#	172868
#	193441
#	209897
#	226356
#	241784
#	260165
#	277815
#	295458
#	311834
#
# Disc length: 4390 seconds
#
# Revision: 1
# Processed by: cddbd v1.5.2PL0 Copyright (c) Steve Scherf et al.
# Submitted via: Feurio! 1.68 - http://www.feurio.com
#
DISCID=10112414
DTITLE=Various Artist - Power Aerobic - 2010/II - 100% Pure Power
DYEAR=2010
DGENRE=Aerobic - Tae Bo
TTITLE0=Move Ya! - Intro
TTITLE1=Scotty feat. Tesz Millan - Let The Beat Hit 'Em (Saxxy Dub Mix)
TTITLE2=R.I.O. - When The Sun Comes Down (DR Mix)
TTITLE3=R3hab feat. Addy van der Zwan - Get Get Down (Original Mix)
TTITLE4=Nick Corline - Sweet Dreams (Club Mix)
TTITLE5=John Revox - Ole (Dirty Rush Hot In Ibiza Mix)
TTITLE6=O. Backens and S. Gruenwald feat. Ela Ward - Hold On (Steve More Mix)
TTITLE7=The Underdog Project - Summer Jam (Eric Chase Remix)
TTITLE8=Nicola Fasano - 75, Brazil Street
TTITLE9=Yanou - Sun Is Shining 2009 (Spencer and Hill Mix)
TTITLE10=Hi-Tack - It's Gonna Be Alright (Hi-Tack Remix)
TTITLE11=Michael Mind Project - Feel Your Body (Extended Mix)
TTITLE12=Jay Frog - I Won't Let You Down (Dee and Crane Mix)
TTITLE13=Comiccon - Komodo (Remix)
TTITLE14=Mike Candys and Jack Holiday - Push The Feeling On (Christopher S Remix)
TTITLE15=Sunloverz - Now That We Found Love (Remix)
TTITLE16=FINAL 1 - Now That We Found Love
TTITLE17=FINAL 2 - Summer Jam vs. I Won't Let You Down
TTITLE18=Laurent Wolf - No Stress (Acoustic Version)
TTITLE19=DJ Antoine - I'll Never Let You Down
EXTD=Cardio: 58:13 // 140 BPM // Summer '10\r\nFINAL 1: 2x Intro and 6x Choreo and 
EXTD=2x Intermezzo and 6x Choreo\r\nFINAL 2: 2x Intro and 6x Choreo and 2x 
EXTD=Intermezzo and 6x Choreo
EXTT0=
EXTT1=
EXTT2=
EXTT3=
EXTT4=
EXTT5=
EXTT6=
EXTT7=
EXTT8=
EXTT9=
EXTT10=
EXTT11=
EXTT12=
EXTT13=
EXTT14=
EXTT15=
EXTT16=
EXTT17=
EXTT18=
EXTT19=
PLAYORDER=
